<svg xmlns="http://www.w3.org/2000/svg" width="302" height="288" viewBox="0 0 302 288"><rect x="0" y="0" width="302" height="288" fill="#fff"/><line x1="100.01360544217687" y1="32" x2="62.59863945578231" y2="82" fill="none" stroke="#444" stroke-width="1"/><polyline points="64.58665570545857,70.99782787850403 62.59863945578231,82 72.59318690278484,76.98910972684341" fill="none" stroke="#222" stroke-width="1.2"/><line x1="61.723270440251575" y1="113" x2="96.31446540880503" y2="163" fill="none" stroke="#444" stroke-width="1"/><polyline points="86.51316373166932,157.62092150700732 96.31446540880503,163 94.73694719691775,151.9315115624958" fill="none" stroke="#222" stroke-width="1.2"/><line x1="105.01383647798743" y1="191" x2="101.49182389937107" y2="241" fill="none" stroke="#444" stroke-width="1"/><polyline points="97.20684392984587,230.67338648632727 101.49182389937107,241 107.18212672859413,231.37604791617622" fill="none" stroke="#222" stroke-width="1.2"/><text x="103.25283018867924" y="212" text-anchor="middle" dominant-baseline="middle" font-family="sans-serif" font-size="11" fill="#000">success</text><line x1="120" y1="188.7157894736842" x2="182.47798742138366" y2="241" fill="none" stroke="#444" stroke-width="1"/><polyline points="171.6001693832827,238.4167704844584 182.47798742138366,241 178.01788021095635,230.74780786019429" fill="none" stroke="#222" stroke-width="1.2"/><text x="151.23899371069183" y="210.8578947368421" text-anchor="middle" dominant-baseline="middle" font-family="sans-serif" font-size="11" fill="#000">error</text><line x1="172.81290322580645" y1="24" x2="155.6" y2="82" fill="none" stroke="#444" stroke-width="1"/><polyline points="153.6517286001343,70.99072034361625 155.6,82 163.2384608851876,73.83581508627721" fill="none" stroke="#222" stroke-width="1.2"/><line x1="177.9741935483871" y1="24" x2="235.6" y2="82" fill="none" stroke="#444" stroke-width="1"/><polyline points="225.0048956221464,78.43015921610116 235.6,82 232.09881000040693,71.38201202737783" fill="none" stroke="#222" stroke-width="1.2"/><line x1="157.46762589928056" y1="113" x2="178.33093525179856" y2="163" fill="none" stroke="#444" stroke-width="1"/><polyline points="169.86566567146824,155.69663016598952 178.33093525179856,163 179.09446937080875,151.84576243532945" fill="none" stroke="#222" stroke-width="1.2"/><line x1="235.16546762589928" y1="113" x2="184.0863309352518" y2="163" fill="none" stroke="#444" stroke-width="1"/><polyline points="187.73489465563955,152.43174646508373 184.0863309352518,163 194.73007199541746,159.57789885536044" fill="none" stroke="#222" stroke-width="1.2"/><circle cx="106" cy="24" r="8" fill="#222" stroke="#222" stroke-width="1"/><rect x="16" y="82" width="70" height="31" rx="8" ry="8" fill="#fefece" stroke="#222" stroke-width="1"/><text x="51" y="97.5" text-anchor="middle" dominant-baseline="middle" font-family="sans-serif" font-size="12" fill="#000">Start</text><polygon points="106,163 120,177 106,191 92,177" fill="#fefece" stroke="#222" stroke-width="1"/><rect x="144" y="16" width="60" height="8" fill="#222" stroke="#222" stroke-width="1"/><rect x="150" y="163" width="60" height="8" fill="#222" stroke="#222" stroke-width="1"/><rect x="65.4" y="241" width="70" height="31" rx="8" ry="8" fill="#fefece" stroke="#222" stroke-width="1"/><text x="100.4" y="256.5" text-anchor="middle" dominant-baseline="middle" font-family="sans-serif" font-size="12" fill="#000">Done</text><rect x="165.4" y="241" width="71.19999999999999" height="31" rx="8" ry="8" fill="#fefece" stroke="#222" stroke-width="1"/><text x="201" y="256.5" text-anchor="middle" dominant-baseline="middle" font-family="sans-serif" font-size="12" fill="#000">Failed</text><rect x="116" y="82" width="70" height="31" rx="8" ry="8" fill="#fefece" stroke="#222" stroke-width="1"/><text x="151" y="97.5" text-anchor="middle" dominant-baseline="middle" font-family="sans-serif" font-size="12" fill="#000">A</text><rect x="216" y="82" width="70" height="31" rx="8" ry="8" fill="#fefece" stroke="#222" stroke-width="1"/><text x="251" y="97.5" text-anchor="middle" dominant-baseline="middle" font-family="sans-serif" font-size="12" fill="#000">B</text></svg>