<svg xmlns="http://www.w3.org/2000/svg" width="224" height="244.75" viewBox="0 0 224 244.75"><rect x="0" y="0" width="224" height="244.75" fill="#fff"/><circle cx="112" cy="24" r="8" fill="#222" stroke="#222" stroke-width="1"/><line x1="112" y1="32" x2="112" y2="56" fill="none" stroke="#444" stroke-width="1"/><polygon points="112,56 109,50 115,50" fill="#444" stroke="#444" stroke-width="1"/><polygon points="112,56 147.8,74.875 112,93.75 76.2,74.875" fill="#fefece" stroke="#222" stroke-width="1"/><text x="112" y="74.875" text-anchor="middle" dominant-baseline="middle" font-family="sans-serif" font-size="11" fill="#000">valid?</text><line x1="112" y1="93.75" x2="56" y2="117.75" fill="none" stroke="#444" stroke-width="1"/><polygon points="56,117.75 60.33311228437084,112.62904911847082 62.69662807584585,118.14391929857916" fill="#444" stroke="#444" stroke-width="1"/><text x="88" y="105.75" text-anchor="start" dominant-baseline="middle" font-family="sans-serif" font-size="11" fill="#000">yes</text><rect x="16" y="117.75" width="80" height="31" rx="8" ry="8" fill="#dfe7ff" stroke="#222" stroke-width="1"/><text x="56" y="133.25" text-anchor="middle" dominant-baseline="middle" font-family="sans-serif" font-size="12" fill="#000">Save</text><polyline points="56,148.75 56,164.75 112,172.75" fill="none" stroke="#444" stroke-width="1"/><polygon points="112,172.75 105.63603896932106,174.87132034355963 106.48456710674493,168.93162338159263" fill="#444" stroke="#444" stroke-width="1"/><line x1="112" y1="93.75" x2="168" y2="117.75" fill="none" stroke="#444" stroke-width="1"/><polygon points="168,117.75 161.30337192415416,118.14391929857916 163.66688771562914,112.62904911847082" fill="#444" stroke="#444" stroke-width="1"/><text x="144" y="105.75" text-anchor="start" dominant-baseline="middle" font-family="sans-serif" font-size="11" fill="#000">no</text><rect x="128" y="117.75" width="80" height="31" rx="8" ry="8" fill="#dfe7ff" stroke="#222" stroke-width="1"/><text x="168" y="133.25" text-anchor="middle" dominant-baseline="middle" font-family="sans-serif" font-size="12" fill="#000">Reject</text><polyline points="168,148.75 168,164.75 112,172.75" fill="none" stroke="#444" stroke-width="1"/><polygon points="112,172.75 117.51543289325507,168.93162338159263 118.36396103067894,174.87132034355963" fill="#444" stroke="#444" stroke-width="1"/><polygon points="112,172.75 118,178.75 112,184.75 106,178.75" fill="#fefece" stroke="#222" stroke-width="1"/><line x1="112" y1="184.75" x2="112" y2="208.75" fill="none" stroke="#444" stroke-width="1"/><polygon points="112,208.75 109,202.75 115,202.75" fill="#444" stroke="#444" stroke-width="1"/><circle cx="112" cy="218.75" r="10" fill="#fff" stroke="#222" stroke-width="1.5"/><circle cx="112" cy="218.75" r="6" fill="#222" stroke="#222" stroke-width="1"/></svg>