<svg xmlns="http://www.w3.org/2000/svg" width="150.39999999999998" height="292" viewBox="0 0 150.39999999999998 292"><rect x="0" y="0" width="150.39999999999998" height="292" fill="#fff"/><line x1="75.19999999999999" y1="80" x2="75.19999999999999" y2="140" fill="none" stroke="#444" stroke-width="1"/><polyline points="70.19999999999999,130 75.19999999999999,140 80.19999999999999,130" fill="none" stroke="#222" stroke-width="1.2"/><line x1="75.19999999999999" y1="178" x2="75.19999999999999" y2="238" fill="none" stroke="#444" stroke-width="1" stroke-dasharray="5,3"/><polyline points="70.19999999999999,228 75.19999999999999,238 80.19999999999999,228" fill="none" stroke="#222" stroke-width="1.2"/><text x="75.19999999999999" y="204" text-anchor="middle" dominant-baseline="middle" font-family="sans-serif" font-size="11" fill="#000">&lt;&lt;include&gt;&gt;</text><circle cx="75.19999999999999" cy="26" r="6" fill="#fefece" stroke="#222" stroke-width="1"/><line x1="75.19999999999999" y1="32" x2="75.19999999999999" y2="52" fill="none" stroke="#222" stroke-width="1"/><line x1="63.19999999999999" y1="40" x2="87.19999999999999" y2="40" fill="none" stroke="#222" stroke-width="1"/><line x1="75.19999999999999" y1="52" x2="66.19999999999999" y2="64" fill="none" stroke="#222" stroke-width="1"/><line x1="75.19999999999999" y1="52" x2="84.19999999999999" y2="64" fill="none" stroke="#222" stroke-width="1"/><text x="75.19999999999999" y="76" text-anchor="middle" dominant-baseline="alphabetic" font-family="sans-serif" font-size="12" fill="#000">User</text><ellipse cx="75.19999999999999" cy="159" rx="45" ry="19" fill="#fefece" stroke="#222" stroke-width="1"/><text x="75.19999999999999" y="159" text-anchor="middle" dominant-baseline="middle" font-family="sans-serif" font-size="12" fill="#000">Login</text><ellipse cx="75.19999999999999" cy="257" rx="59.199999999999996" ry="19" fill="#fefece" stroke="#222" stroke-width="1"/><text x="75.19999999999999" y="257" text-anchor="middle" dominant-baseline="middle" font-family="sans-serif" font-size="12" fill="#000">Authenticate</text></svg>