<svg xmlns="http://www.w3.org/2000/svg" width="494" height="224" viewBox="0 0 494 224"><rect x="0" y="0" width="494" height="224" fill="#fff"/><line x1="52" y1="62" x2="52" y2="162" fill="none" stroke="#666" stroke-width="1" stroke-dasharray="4,4"/><line x1="182" y1="62" x2="182" y2="162" fill="none" stroke="#666" stroke-width="1" stroke-dasharray="4,4"/><line x1="312" y1="62" x2="312" y2="162" fill="none" stroke="#666" stroke-width="1" stroke-dasharray="4,4"/><line x1="442" y1="62" x2="442" y2="162" fill="none" stroke="#666" stroke-width="1" stroke-dasharray="4,4"/><line x1="182" y1="108" x2="312" y2="108" fill="none" stroke="#222" stroke-width="1"/><polygon points="312,108 304,104 304,112" fill="#222" stroke="#222" stroke-width="1"/><text x="247" y="102" text-anchor="middle" dominant-baseline="alphabetic" font-family="sans-serif" font-size="12" fill="#000">ping</text><rect x="134" y="62" width="226" height="74" fill="none" stroke="#888" stroke-width="1"/><polygon points="134,62 253.6,62 257.6,76 257.6,80 134,80" fill="#eeeeee" stroke="#888" stroke-width="1"/><text x="141" y="71" text-anchor="start" dominant-baseline="middle" font-family="sans-serif" font-size="11" font-weight="bold" fill="#000">group [only B-C]</text><rect x="12" y="12" width="80" height="50" fill="#fefece" stroke="#222" stroke-width="1"/><text x="52" y="37" text-anchor="middle" dominant-baseline="middle" font-family="sans-serif" font-size="13" fill="#000">A</text><rect x="12" y="162" width="80" height="50" fill="#fefece" stroke="#222" stroke-width="1"/><text x="52" y="187" text-anchor="middle" dominant-baseline="middle" font-family="sans-serif" font-size="13" fill="#000">A</text><rect x="142" y="12" width="80" height="50" fill="#fefece" stroke="#222" stroke-width="1"/><text x="182" y="37" text-anchor="middle" dominant-baseline="middle" font-family="sans-serif" font-size="13" fill="#000">B</text><rect x="142" y="162" width="80" height="50" fill="#fefece" stroke="#222" stroke-width="1"/><text x="182" y="187" text-anchor="middle" dominant-baseline="middle" font-family="sans-serif" font-size="13" fill="#000">B</text><rect x="272" y="12" width="80" height="50" fill="#fefece" stroke="#222" stroke-width="1"/><text x="312" y="37" text-anchor="middle" dominant-baseline="middle" font-family="sans-serif" font-size="13" fill="#000">C</text><rect x="272" y="162" width="80" height="50" fill="#fefece" stroke="#222" stroke-width="1"/><text x="312" y="187" text-anchor="middle" dominant-baseline="middle" font-family="sans-serif" font-size="13" fill="#000">C</text><rect x="402" y="12" width="80" height="50" fill="#fefece" stroke="#222" stroke-width="1"/><text x="442" y="37" text-anchor="middle" dominant-baseline="middle" font-family="sans-serif" font-size="13" fill="#000">D</text><rect x="402" y="162" width="80" height="50" fill="#fefece" stroke="#222" stroke-width="1"/><text x="442" y="187" text-anchor="middle" dominant-baseline="middle" font-family="sans-serif" font-size="13" fill="#000">D</text></svg>