<svg xmlns="http://www.w3.org/2000/svg" width="152" height="251" viewBox="0 0 152 251"><rect x="0" y="0" width="152" height="251" fill="#fff"/><line x1="76" y1="160" x2="76" y2="202" fill="none" stroke="#444" stroke-width="1"/><polygon points="76,142 82,151 76,160 70,151" fill="#222" stroke="#222" stroke-width="1"/><text x="76" y="168" text-anchor="middle" dominant-baseline="middle" font-family="sans-serif" font-size="11" fill="#000">contains</text><text x="76" y="148.8" text-anchor="middle" dominant-baseline="alphabetic" font-family="sans-serif" font-size="11" fill="#000">1</text><text x="76" y="187.2" text-anchor="middle" dominant-baseline="alphabetic" font-family="sans-serif" font-size="11" fill="#000">*</text><line x1="76" y1="67" x2="76" y2="109" fill="none" stroke="#444" stroke-width="1"/><polygon points="76,49 82,58 76,67 70,58" fill="#fff" stroke="#222" stroke-width="1"/><text x="76" y="75" text-anchor="middle" dominant-baseline="middle" font-family="sans-serif" font-size="11" fill="#000">places</text><text x="76" y="55.8" text-anchor="middle" dominant-baseline="alphabetic" font-family="sans-serif" font-size="11" fill="#000">1</text><text x="76" y="94.2" text-anchor="middle" dominant-baseline="alphabetic" font-family="sans-serif" font-size="11" fill="#000">*</text><rect x="16" y="109" width="120" height="33" fill="#fefece" stroke="#222" stroke-width="1"/><text x="76" y="140" text-anchor="middle" dominant-baseline="alphabetic" font-family="sans-serif" font-size="14" font-weight="bold" font-style="normal" fill="#000">Order</text><rect x="16" y="202" width="120" height="33" fill="#fefece" stroke="#222" stroke-width="1"/><text x="76" y="233" text-anchor="middle" dominant-baseline="alphabetic" font-family="sans-serif" font-size="14" font-weight="bold" font-style="normal" fill="#000">LineItem</text><rect x="16" y="16" width="120" height="33" fill="#fefece" stroke="#222" stroke-width="1"/><text x="76" y="47" text-anchor="middle" dominant-baseline="alphabetic" font-family="sans-serif" font-size="14" font-weight="bold" font-style="normal" fill="#000">Customer</text></svg>